<svg width="71" height="70" viewBox="0 0 71 70" fill="none" xmlns="http://www.w3.org/2000/svg">
<rect x="0.328125" width="70" height="70" rx="12.22" fill="#1E222B"/>
<path d="M44.844 47.3817H30.7562V49.3942C30.7562 49.7401 30.6933 50.0797 30.5864 50.4005H44.844C47.064 50.4005 48.869 48.5955 48.869 46.3754V27.9167C48.869 26.8475 48.4476 25.8224 47.693 25.0677L41.995 19.376C41.2403 18.6213 40.2214 18.2 39.1523 18.2H28.7437C26.5236 18.2 24.7186 20.0049 24.7186 22.225V26.6966L24.7249 26.6903C24.8193 26.6463 24.9765 26.5645 25.14 26.5016C25.9953 26.1557 26.9198 26.162 27.7374 26.4702V22.225C27.7374 21.6716 28.1903 21.2187 28.7437 21.2187H38.8064V26.2501C38.8064 27.3633 39.7057 28.2626 40.8189 28.2626H45.8502V46.3754C45.8502 46.9288 45.3974 47.3817 44.844 47.3817ZM23.5363 28.3632C22.9074 28.1054 22.1841 28.3003 21.769 28.8349L21.1087 29.684C21.0269 29.7909 20.9074 29.8538 20.7816 29.8726L19.7188 30.0173C19.0458 30.1116 18.5175 30.6399 18.4295 31.3066L18.2848 32.3694C18.266 32.5015 18.1968 32.621 18.0962 32.6965L17.2408 33.3631C16.7062 33.7782 16.5113 34.5015 16.7691 35.1304L17.1716 36.1241C17.222 36.2436 17.222 36.3819 17.1716 36.5077L16.7691 37.4951C16.5113 38.124 16.7062 38.8473 17.2408 39.2624L18.0899 39.9227C18.1968 40.0045 18.2597 40.124 18.2785 40.2498L18.4232 41.3126C18.5175 41.9856 19.0458 42.5139 19.7125 42.6082L20.6936 42.7403V49.3942C20.6936 49.7653 20.8948 50.1049 21.2282 50.281C21.5615 50.4571 21.9514 50.4382 22.2596 50.2307L24.7186 48.5892L27.1777 50.2307C27.4859 50.4382 27.8821 50.4571 28.2091 50.281C28.5362 50.1049 28.7437 49.7653 28.7437 49.3942V42.7403L29.7185 42.6082C30.3915 42.5139 30.9198 41.9856 31.0078 41.3126L31.1525 40.2498C31.1713 40.1177 31.2405 39.9982 31.3411 39.9227L32.1902 39.2624C32.7247 38.8473 32.9197 38.124 32.6619 37.4951L32.2656 36.5014C32.2153 36.3819 32.2153 36.2436 32.2656 36.1178L32.6744 35.1241C32.9323 34.4952 32.7373 33.7719 32.2027 33.3568L31.3537 32.6965C31.2468 32.6147 31.1839 32.4952 31.165 32.3694L31.0204 31.3066C30.926 30.6336 30.3978 30.1053 29.7311 30.0173L28.6682 29.8726C28.5362 29.8538 28.4167 29.7846 28.3412 29.684L27.6808 28.8349C27.2658 28.3003 26.5425 28.1054 25.9136 28.3632L24.9073 28.7657C24.7878 28.8161 24.6495 28.8161 24.5237 28.7657L23.53 28.3569L23.5363 28.3632ZM20.6936 36.3127C20.6936 35.2452 21.1176 34.2214 21.8725 33.4666C22.6273 32.7117 23.6511 32.2877 24.7186 32.2877C25.7862 32.2877 26.8099 32.7117 27.5648 33.4666C28.3196 34.2214 28.7437 35.2452 28.7437 36.3127C28.7437 37.3803 28.3196 38.404 27.5648 39.1589C26.8099 39.9137 25.7862 40.3378 24.7186 40.3378C23.6511 40.3378 22.6273 39.9137 21.8725 39.1589C21.1176 38.404 20.6936 37.3803 20.6936 36.3127Z" fill="url(#paint0_linear_73_30)"/>
<defs>
<linearGradient id="paint0_linear_73_30" x1="11.111" y1="50.0767" x2="44.9184" y2="22.9412" gradientUnits="userSpaceOnUse">
<stop stop-color="#9080FF"/>
<stop offset="1" stop-color="#B30ED9"/>
</linearGradient>
</defs>
</svg>
