<svg width="70" height="70" viewBox="0 0 70 70" fill="none" xmlns="http://www.w3.org/2000/svg">
<rect width="70" height="70" rx="8.72857" fill="#1E222B"/>
<path d="M39.3459 19.0658C38.5711 18.8279 37.7537 19.2549 37.5158 20.0296L28.7315 48.3345C28.4936 49.1092 28.9206 49.9267 29.6954 50.1646C30.4701 50.4025 31.2875 49.9755 31.5254 49.2007L40.3097 20.8958C40.5476 20.1211 40.1206 19.3037 39.3459 19.0658ZM43.7014 26.2945C43.1463 26.8862 43.1768 27.8135 43.7685 28.3625L50.436 34.6152L43.7685 40.8679C43.1768 41.423 43.1463 42.3502 43.7014 42.9358C44.2565 43.5215 45.1838 43.5581 45.7694 43.0029L53.5776 35.6827C53.8704 35.4082 54.0412 35.0178 54.0412 34.6152C54.0412 34.2126 53.8765 33.8221 53.5776 33.5476L45.7694 26.2274C45.1777 25.6723 44.2504 25.7028 43.7014 26.2945ZM25.3398 26.2945C24.7847 25.7028 23.8575 25.6723 23.2719 26.2274L15.4636 33.5476C15.1647 33.8221 15 34.2126 15 34.6152C15 35.0178 15.1647 35.4082 15.4636 35.6827L23.2719 43.0029C23.8636 43.5581 24.7908 43.5276 25.3398 42.9358C25.8888 42.3441 25.8644 41.4169 25.2727 40.8679L18.6052 34.6152L25.2727 28.3625C25.8644 27.8074 25.8949 26.8801 25.3398 26.2945Z" fill="url(#paint0_linear_73_26)"/>
<defs>
<linearGradient id="paint0_linear_73_26" x1="8.27923" y1="49.916" x2="41.863" y2="16.2305" gradientUnits="userSpaceOnUse">
<stop stop-color="#9080FF"/>
<stop offset="1" stop-color="#B30ED9"/>
</linearGradient>
</defs>
</svg>
