<svg width="70" height="70" viewBox="0 0 70 70" fill="none" xmlns="http://www.w3.org/2000/svg">
<rect width="70" height="70" rx="8.72857" fill="#1E222B"/>
<path d="M28.2896 23.6808C28.8848 23.0187 28.8313 22.0088 28.1692 21.4136C27.5071 20.8183 26.4972 20.8718 25.9019 21.534L22.2235 25.6203L20.7454 24.1423C20.1168 23.5203 19.1002 23.5203 18.4715 24.1423C17.8428 24.7643 17.8428 25.7875 18.4715 26.4095L21.1467 29.0848C21.4611 29.3991 21.8824 29.5663 22.3238 29.5529C22.7652 29.5395 23.1799 29.3523 23.4742 29.0246L28.2896 23.6741V23.6808ZM28.2896 34.3817C28.8848 33.7196 28.8313 32.7097 28.1692 32.1144C27.5071 31.5192 26.4972 31.5727 25.9019 32.2348L22.2235 36.3212L20.7454 34.8432C20.1168 34.2145 19.1002 34.2145 18.4782 34.8432C17.8562 35.4718 17.8495 36.4884 18.4782 37.1104L21.1534 39.7856C21.4678 40.1 21.8891 40.2672 22.3305 40.2538C22.7719 40.2404 23.1866 40.0531 23.4809 39.7254L28.2962 34.375L28.2896 34.3817ZM32.4495 26.8844H50.641C51.5305 26.8844 52.2461 26.1688 52.2461 25.2793C52.2461 24.3897 51.5305 23.6741 50.641 23.6741H32.4495C31.56 23.6741 30.8444 24.3897 30.8444 25.2793C30.8444 26.1688 31.56 26.8844 32.4495 26.8844ZM30.8444 35.9801C30.8444 36.8696 31.56 37.5853 32.4495 37.5853H50.641C51.5305 37.5853 52.2461 36.8696 52.2461 35.9801C52.2461 35.0906 51.5305 34.375 50.641 34.375H32.4495C31.56 34.375 30.8444 35.0906 30.8444 35.9801ZM28.7042 46.681C28.7042 47.5705 29.4198 48.2861 30.3093 48.2861H50.641C51.5305 48.2861 52.2461 47.5705 52.2461 46.681C52.2461 45.7915 51.5305 45.0759 50.641 45.0759H30.3093C29.4198 45.0759 28.7042 45.7915 28.7042 46.681ZM24.4239 46.681C24.4239 46.1134 24.1984 45.569 23.797 45.1677C23.3957 44.7663 22.8513 44.5408 22.2837 44.5408C21.7161 44.5408 21.1717 44.7663 20.7704 45.1677C20.369 45.569 20.1435 46.1134 20.1435 46.681C20.1435 47.2486 20.369 47.793 20.7704 48.1943C21.1717 48.5957 21.7161 48.8212 22.2837 48.8212C22.8513 48.8212 23.3957 48.5957 23.797 48.1943C24.1984 47.793 24.4239 47.2486 24.4239 46.681Z" fill="url(#paint0_linear_73_24)"/>
<defs>
<linearGradient id="paint0_linear_73_24" x1="12.1047" y1="48.5411" x2="42.0202" y2="18.9951" gradientUnits="userSpaceOnUse">
<stop stop-color="#9080FF"/>
<stop offset="1" stop-color="#B30ED9"/>
</linearGradient>
</defs>
</svg>
