<svg width="70" height="70" viewBox="0 0 70 70" fill="none" xmlns="http://www.w3.org/2000/svg">
<rect width="70" height="70" rx="12.22" fill="#1E222B"/>
<path d="M20.7032 24.9219L35 18.8594L49.2969 24.9219C49.7578 25.1172 50.0078 25.5313 50 25.9219C49.9688 33.0625 47 45.3984 35.4453 50.9297C35.1641 51.0625 34.836 51.0625 34.5625 50.9297C23 45.3906 20.0391 33.0625 20 25.9141C20 25.5234 20.2422 25.1172 20.7032 24.9141V24.9219ZM50.7578 21.4688L36.0469 15.2266C35.7188 15.0781 35.3672 15 35 15C34.6328 15 34.2813 15.0781 33.9532 15.2266L19.2422 21.4688C17.5235 22.1953 16.2422 23.8906 16.25 25.9375C16.2891 33.6875 19.4766 47.8672 32.9375 54.3125C34.2422 54.9375 35.7578 54.9375 37.0625 54.3125C50.5313 47.8672 53.711 33.6875 53.75 25.9375C53.7578 23.8906 52.4766 22.1953 50.7578 21.4688ZM43.8282 31.3281C44.5625 30.5938 44.5625 29.4063 43.8282 28.6797C43.0938 27.9531 41.9063 27.9453 41.1797 28.6797L32.5078 37.3516L28.836 33.6797C28.1016 32.9453 26.9141 32.9453 26.1875 33.6797C25.461 34.4141 25.4532 35.6016 26.1875 36.3281L31.1875 41.3281C31.9219 42.0625 33.1094 42.0625 33.836 41.3281L43.8282 31.3281Z" fill="url(#paint0_linear_78_47)"/>
<defs>
<linearGradient id="paint0_linear_78_47" x1="9.79453" y1="54.3808" x2="50.9582" y2="23.2469" gradientUnits="userSpaceOnUse">
<stop stop-color="#9080FF"/>
<stop offset="1" stop-color="#B30ED9"/>
</linearGradient>
</defs>
</svg>
