<svg width="513" height="513" viewBox="0 0 513 513" fill="none" xmlns="http://www.w3.org/2000/svg">
<path fill-rule="evenodd" clip-rule="evenodd" d="M359.464 10.0039C473.815 10.0039 533.567 95.5381 506.508 219.978C476.847 356.039 378.595 452.626 257.694 503.448C105.003 440.079 17.0791 314.169 0.960938 144.091C68.3603 132.858 121.412 85.5698 117.671 10.0039H359.462L359.464 10.0039Z" fill="#0094D9"/>
<path fill-rule="evenodd" clip-rule="evenodd" d="M488.469 215.981C462.825 336.272 375.881 432.305 257.79 483.351C118.851 423.684 38.841 305.811 21.3594 158.248C83.3966 142.442 131.551 95.7195 135.862 28.17H360.321C470.281 27.6844 511.215 114.166 488.482 215.974L488.469 215.981Z" fill="white"/>
<path fill-rule="evenodd" clip-rule="evenodd" d="M472.458 212.434C447.058 329.341 365.37 416.562 257.804 465.404C135.658 411.028 59.2316 305.604 39.3594 170.017C96.8413 150.365 140.683 106.067 150.509 44.7445H360.326C459.75 44.257 492.344 121.386 472.451 212.423L472.458 212.434Z" fill="#0094D9"/>
<path fill-rule="evenodd" clip-rule="evenodd" d="M395.413 183.716H235.161L280.944 115.817L310.142 105.763C313.817 104.504 312.764 101.854 310.883 101.854H283.477L280.513 72.1376C280.417 70.5519 277.881 69.9038 277.235 72.0424L268.242 101.852H239.706C237.263 101.852 236.954 104.702 239.706 105.761L265.713 115.171L204.483 183.714H74.9957C69.9306 183.714 69.1891 192.272 74.9957 192.689L187.459 206.856C183.66 213.744 177.325 220.406 175.083 228.113C172.753 236.138 179.009 242.289 185.234 240.897C195.273 238.703 211.883 217.859 218.664 209.513L221.273 205.404L395.413 192.38C401.59 192.059 401.474 183.716 395.413 183.716Z" fill="white"/>
<path fill-rule="evenodd" clip-rule="evenodd" d="M216.379 317.195C215.234 321.456 214.265 324.519 213.413 326.865V291.829C216.891 291.642 221.693 291.396 221.693 291.396L222.281 279.597V259.11H173.805C173.805 259.11 168.305 273.602 166.792 277.647C165.261 273.602 159.779 259.11 159.779 259.11H110.328V291.366C110.328 291.366 115.597 291.644 119.196 291.831C119.196 292.263 119.181 331.011 119.181 331.349C115.939 331.534 406.021 331.534 402.435 331.349V291.831C405.892 291.644 410.685 291.398 410.685 291.398L411.299 279.599V259.112H306.286V291.398C306.286 291.398 311.845 291.676 315.395 291.831V329.498C314.413 327.518 313.085 323.598 311.071 314.911L277.554 171.616L253.49 171.383C253.49 171.383 216.417 316.947 216.383 317.195H216.379ZM263.003 325.292C263.497 327.642 263.871 329.616 264.149 331.319C262.354 331.383 261.43 331.415 259.172 331.5V331.19H249.656C249.828 330.483 250.412 328.167 251.156 325.294C256.204 325.292 257.906 325.292 263.003 325.292Z" fill="#0094D9"/>
<path fill-rule="evenodd" clip-rule="evenodd" d="M270.756 303.784L258.528 243.674L244.164 303.784H270.756ZM344.75 322.727L373.053 288.214V287.038C373.053 283.205 370.888 279.595 363.939 279.595V271.468H398.915V279.595C390.296 279.595 390.045 282.959 390.045 291.578V331.597C390.045 340.461 390.755 343.581 398.915 343.581V351.463H363.941V343.581C371.852 343.581 373.055 340.706 373.055 331.597V300.478L344.752 335.206V336.632C344.752 341.418 347.412 343.582 353.866 343.582V351.464H266.927V343.582C273.167 343.582 277.218 343.087 277.218 336.847C277.218 333.046 275.547 323.439 272.923 312.903H241.538L237.459 328.973C234.586 339.505 235.528 343.584 246.79 343.584V351.466H174.215V343.584C182.834 343.584 183.793 340.71 183.793 331.601V294.214L161.761 348.872L139.487 292.544V332.305C139.487 339.97 140.445 343.584 148.818 343.584V351.466H122V343.584C131.114 343.584 131.576 338.056 131.576 330.39V291.584C131.576 284.664 131.576 279.6 122.723 279.6V271.474H151.211L166.797 312.69L182.366 271.474H209.895V279.6C201.291 279.6 201.044 282.964 201.044 291.584V331.603C201.044 339.26 201.771 341.67 204.15 342.381C209.436 344.298 219.26 343.805 222.116 338.058C224.047 334.471 226.195 328.476 228.341 320.353L265.467 174.445L299.023 317.693C302.609 333.267 304.774 337.096 308.138 340.465C311.479 343.334 322.508 345.499 326.338 341.175C327.293 340.22 327.756 338.551 327.756 331.601V291.582C327.756 282.467 327.048 279.598 318.673 279.598V271.472H353.863V279.598C345.243 279.598 344.748 283.211 344.748 291.582L344.75 322.727Z" fill="white"/>
</svg>
