<svg width="70" height="70" viewBox="0 0 70 70" fill="none" xmlns="http://www.w3.org/2000/svg">
<rect width="70" height="70" rx="13" fill="#1E222B"/>
<path d="M19.6628 46V29.2742L15.8259 31.6189V27.8389L19.6628 25.5368H23.1586V46H19.6628ZM28.0037 37.1042V34.4184H36.53V37.1042H28.0037ZM39.3699 45.9716V42.9874L48.1236 35.1858C48.8057 34.5795 49.2794 34.0063 49.5446 33.4663C49.8099 32.9263 49.9425 32.4053 49.9425 31.9032C49.9425 31.2211 49.7957 30.6147 49.502 30.0842C49.2083 29.5442 48.8009 29.1179 48.2799 28.8053C47.7683 28.4926 47.1762 28.3363 46.5036 28.3363C45.793 28.3363 45.163 28.5021 44.6136 28.8337C44.0736 29.1558 43.652 29.5868 43.3488 30.1268C43.0457 30.6668 42.9036 31.2495 42.9225 31.8747H39.3983C39.3983 30.5105 39.7015 29.3216 40.3078 28.3079C40.9236 27.2942 41.7667 26.5079 42.8373 25.9489C43.9173 25.39 45.163 25.1105 46.5746 25.1105C47.882 25.1105 49.0567 25.4042 50.0988 25.9916C51.1409 26.5695 51.9604 27.3747 52.5573 28.4074C53.1541 29.4305 53.4525 30.61 53.4525 31.9458C53.4525 32.9216 53.3199 33.7411 53.0546 34.4042C52.7894 35.0674 52.3915 35.6784 51.8609 36.2374C51.3399 36.7963 50.6909 37.4168 49.9141 38.0989L43.7041 43.5984L43.3915 42.7458H53.4525V45.9716H39.3699Z" fill="url(#paint0_linear_41_797)"/>
<defs>
<linearGradient id="paint0_linear_41_797" x1="6.94204" y1="51.6577" x2="43.4845" y2="16.3013" gradientUnits="userSpaceOnUse">
<stop stop-color="#9080FF"/>
<stop offset="1" stop-color="#B30ED9"/>
</linearGradient>
</defs>
</svg>
