<svg width="70" height="70" viewBox="0 0 70 70" fill="none" xmlns="http://www.w3.org/2000/svg">
<rect width="70" height="70" rx="13" fill="#1E222B"/>
<path d="M13.627 45.9716V42.9874L22.3807 35.1858C23.0628 34.5795 23.5365 34.0063 23.8018 33.4663C24.067 32.9263 24.1997 32.4053 24.1997 31.9032C24.1997 31.2211 24.0528 30.6147 23.7591 30.0842C23.4655 29.5442 23.0581 29.1179 22.537 28.8053C22.0255 28.4926 21.4334 28.3363 20.7607 28.3363C20.0502 28.3363 19.4202 28.5021 18.8707 28.8337C18.3307 29.1558 17.9091 29.5868 17.606 30.1268C17.3028 30.6668 17.1607 31.2495 17.1797 31.8747H13.6555C13.6555 30.5105 13.9586 29.3216 14.5649 28.3079C15.1807 27.2942 16.0239 26.5079 17.0944 25.9489C18.1744 25.39 19.4202 25.1105 20.8318 25.1105C22.1391 25.1105 23.3139 25.4042 24.356 25.9916C25.3981 26.5695 26.2176 27.3747 26.8144 28.4074C27.4112 29.4305 27.7097 30.61 27.7097 31.9458C27.7097 32.9216 27.577 33.7411 27.3118 34.4042C27.0465 35.0674 26.6486 35.6784 26.1181 36.2374C25.597 36.7963 24.9481 37.4168 24.1712 38.0989L17.9612 43.5984L17.6486 42.7458H27.7097V45.9716H13.627ZM30.5575 37.1042V34.4184H39.0839V37.1042H30.5575ZM50.9901 46V42.6179H41.9237V39.4205L48.4748 25.5368H52.3827L45.8316 39.4205H50.9901V34.0916H54.4574V39.4205H56.3759V42.6179H54.4574V46H50.9901Z" fill="url(#paint0_linear_41_789)"/>
<defs>
<linearGradient id="paint0_linear_41_789" x1="4.08131" y1="51.6577" x2="40.5208" y2="12.1013" gradientUnits="userSpaceOnUse">
<stop stop-color="#9080FF"/>
<stop offset="1" stop-color="#B30ED9"/>
</linearGradient>
</defs>
</svg>
