<svg width="71" height="70" viewBox="0 0 71 70" fill="none" xmlns="http://www.w3.org/2000/svg">
<rect x="0.142578" width="70" height="70" rx="12.22" fill="#1E222B"/>
<path d="M28.9615 44.6011C28.9615 44.7406 28.801 44.8523 28.5986 44.8523C28.3683 44.8733 28.2077 44.7616 28.2077 44.6011C28.2077 44.4615 28.3683 44.3498 28.5707 44.3498C28.78 44.3289 28.9615 44.4405 28.9615 44.6011ZM26.7909 44.287C26.7421 44.4266 26.8817 44.5871 27.0911 44.629C27.2725 44.6988 27.4819 44.629 27.5238 44.4894C27.5656 44.3498 27.433 44.1893 27.2237 44.1265C27.0422 44.0776 26.8398 44.1474 26.7909 44.287ZM29.8758 44.1683C29.6734 44.2172 29.5338 44.3498 29.5548 44.5103C29.5757 44.6499 29.7572 44.7406 29.9665 44.6918C30.1689 44.6429 30.3085 44.5103 30.2876 44.3707C30.2666 44.2381 30.0782 44.1474 29.8758 44.1683ZM34.4682 17.4236C24.7879 17.4236 17.3828 24.7728 17.3828 34.4531C17.3828 42.1932 22.2544 48.8166 29.2128 51.1477C30.1061 51.3082 30.4202 50.7568 30.4202 50.3032C30.4202 49.8704 30.3992 47.4835 30.3992 46.0179C30.3992 46.0179 25.5137 47.0648 24.4878 43.938C24.4878 43.938 23.6921 41.907 22.5475 41.3836C22.5475 41.3836 20.9492 40.2878 22.6592 40.3088C22.6592 40.3088 24.397 40.4484 25.3532 42.1094C26.8817 44.8035 29.4431 44.0288 30.4411 43.5681C30.6016 42.4514 31.0553 41.6767 31.5578 41.2161C27.6564 40.7834 23.72 40.218 23.72 33.5039C23.72 31.5846 24.2505 30.6215 25.3672 29.3931C25.1857 28.9395 24.5925 27.069 25.5486 24.6542C27.0073 24.2005 30.3644 26.5386 30.3644 26.5386C31.7602 26.1477 33.2608 25.9453 34.7474 25.9453C36.234 25.9453 37.7345 26.1477 39.1304 26.5386C39.1304 26.5386 42.4874 24.1935 43.9461 24.6542C44.9023 27.076 44.309 28.9395 44.1276 29.3931C45.2443 30.6285 45.9282 31.5916 45.9282 33.5039C45.9282 40.239 41.8174 40.7764 37.916 41.2161C38.5581 41.7675 39.1025 42.8144 39.1025 44.4545C39.1025 46.8065 39.0815 49.7169 39.0815 50.2892C39.0815 50.7429 39.4026 51.2942 40.2889 51.1337C47.2683 48.8166 52.0003 42.1932 52.0003 34.4531C52.0003 24.7728 44.1485 17.4236 34.4682 17.4236ZM24.1667 41.4953C24.076 41.5651 24.0969 41.7256 24.2156 41.8582C24.3272 41.9699 24.4878 42.0187 24.5785 41.928C24.6692 41.8582 24.6483 41.6977 24.5296 41.5651C24.418 41.4534 24.2574 41.4045 24.1667 41.4953ZM23.4129 40.9299C23.3641 41.0207 23.4339 41.1323 23.5735 41.2021C23.6851 41.2719 23.8247 41.251 23.8736 41.1533C23.9224 41.0625 23.8526 40.9509 23.7131 40.8811C23.5735 40.8392 23.4618 40.8601 23.4129 40.9299ZM25.6742 43.4146C25.5626 43.5053 25.6045 43.7147 25.765 43.8473C25.9255 44.0078 26.1279 44.0288 26.2186 43.9171C26.3094 43.8264 26.2675 43.617 26.1279 43.4844C25.9744 43.3238 25.765 43.3029 25.6742 43.4146ZM24.8786 42.3886C24.7669 42.4584 24.7669 42.6399 24.8786 42.8004C24.9903 42.9609 25.1787 43.0307 25.2694 42.9609C25.3811 42.8702 25.3811 42.6887 25.2694 42.5282C25.1717 42.3677 24.9903 42.2979 24.8786 42.3886Z" fill="url(#paint0_linear_73_28)"/>
<defs>
<linearGradient id="paint0_linear_73_28" x1="11.4236" y1="50.8363" x2="47.0411" y2="21.5262" gradientUnits="userSpaceOnUse">
<stop stop-color="#9080FF"/>
<stop offset="1" stop-color="#B30ED9"/>
</linearGradient>
</defs>
</svg>
