<?xml version="1.0" encoding="iso-8859-1"?>
<!-- Uploaded to: SVG Repo, www.svgrepo.com, Generator: SVG Repo Mixer Tools -->
<svg height="800px" width="800px" version="1.1" id="Layer_1" xmlns="http://www.w3.org/2000/svg" xmlns:xlink="http://www.w3.org/1999/xlink" 
	 viewBox="0 0 392.469 392.469" xml:space="preserve">
<path style="fill:#194F82;" d="M354.392,0H92.638c-21.01,0-38.077,17.131-38.077,38.141v316.186c0,9.051-7.37,16.356-16.356,16.356
	s-16.356-7.37-16.356-16.356V184.113c0-6.012-4.848-10.925-10.925-10.925S0,178.036,0,184.113v170.214
	c0,21.01,17.131,38.141,38.141,38.141h316.186c21.01,0,38.141-17.131,38.141-38.141V38.142C392.533,17.131,375.402,0,354.392,0z
	 M370.747,354.392c0,9.051-7.37,16.356-16.356,16.356H72.663c2.392-4.978,3.685-10.537,3.685-16.356V38.142
	c0-9.051,7.37-16.356,16.356-16.356h261.754c9.051,0,16.356,7.37,16.356,16.356v316.186h-0.065V354.392z"/>
<path style="fill:#56ACE0;" d="M21.786,354.392c0,9.051,7.37,16.356,16.356,16.356s16.356-7.37,16.356-16.356V184.049H21.786l0,0
	V354.392z"/>
<path style="fill:#FFFFFF;" d="M354.392,21.786H92.638c-9.051,0-16.356,7.37-16.356,16.356v316.186
	c0,5.883-1.293,11.378-3.685,16.356h281.729c9.051,0,16.356-7.37,16.356-16.356V38.142
	C370.747,29.156,363.378,21.786,354.392,21.786z"/>
<g>
	<path style="fill:#194F82;" d="M337.972,54.562H110.158c-6.012,0-10.925,4.848-10.925,10.925c0,6.077,4.848,10.925,10.925,10.925
		h227.879c6.012,0,10.925-4.848,10.925-10.925C348.962,59.41,343.984,54.562,337.972,54.562z"/>
	<path style="fill:#194F82;" d="M337.972,108.994H110.158c-6.012,0-10.925,4.848-10.925,10.925c0,6.012,4.848,10.925,10.925,10.925
		h227.879c6.012,0,10.925-4.848,10.925-10.925C348.962,113.843,343.984,108.994,337.972,108.994z"/>
	<path style="fill:#194F82;" d="M110.158,185.342h81.455c6.012,0,10.925-4.848,10.925-10.925c0-6.012-4.848-10.925-10.925-10.925
		h-81.455c-6.012,0-10.925,4.848-10.925,10.925S104.145,185.342,110.158,185.342z"/>
	<path style="fill:#194F82;" d="M110.158,239.838h81.455c6.012,0,10.925-4.848,10.925-10.925c0-6.012-4.848-10.925-10.925-10.925
		h-81.455c-6.012,0-10.925,4.848-10.925,10.925S104.145,239.838,110.158,239.838z"/>
	<path style="fill:#194F82;" d="M205.123,272.614h-95.03c-6.012,0-10.925,4.848-10.925,10.925c0,6.012,4.848,10.925,10.925,10.925
		h95.03c6.012,0,10.925-4.848,10.925-10.925S211.2,272.614,205.123,272.614z"/>
	<path style="fill:#194F82;" d="M205.123,327.111h-95.03c-6.012,0-10.925,4.849-10.925,10.925s4.848,10.925,10.925,10.925h95.03
		c6.012,0,10.925-4.848,10.925-10.925C216.113,332.024,211.2,327.111,205.123,327.111z"/>
</g>
<g>
	<path style="fill:#FFC10D;" d="M263.111,280.243v43.572l12.412-9.438c3.879-2.909,9.244-2.909,13.123,0l12.412,9.438v-43.572
		c-6.012,1.745-12.412,2.78-19.006,2.78S269.123,282.053,263.111,280.243z"/>
	<path style="fill:#FFC10D;" d="M282.117,171.313c-24.824,0-44.994,20.17-44.994,44.994s20.17,44.994,44.994,44.994
		c24.824,0,44.994-20.17,44.994-44.994S306.941,171.313,282.117,171.313z"/>
</g>
<path style="fill:#194F82;" d="M282.117,149.463c-36.848,0-66.844,29.996-66.844,66.844c0,21.463,10.214,40.469,25.988,52.752
	v76.735c0.711,10.537,10.925,13.382,17.455,8.727l23.337-17.648l23.337,17.648c7.499,5.947,18.101-1.293,17.455-8.727v-76.735
	c15.774-12.218,25.988-31.289,25.988-52.752C348.962,179.394,318.966,149.463,282.117,149.463z M301.123,323.814l-12.412-9.309
	c-3.879-2.909-9.244-2.909-13.123,0l-12.412,9.438v-43.572c6.012,1.745,12.412,2.78,19.006,2.78c6.659,0,12.994-1.034,19.006-2.78
	v43.442H301.123z M282.117,261.236c-24.824,0-44.994-20.17-44.994-44.994s20.17-44.994,44.994-44.994
	c24.824,0,44.994,20.17,44.994,44.994S306.941,261.236,282.117,261.236z"/>
</svg>